<svg width="18" height="16" viewBox="0 0 18 16" fill="none" xmlns="http://www.w3.org/2000/svg">
<path d="M16.5835 6.91667H3.73516L7.66766 2.19334C7.85155 1.9721 7.94001 1.68688 7.9136 1.40042C7.88719 1.11396 7.74806 0.84972 7.52683 0.665837C7.3056 0.481954 7.02037 0.393486 6.73391 0.419898C6.44745 0.446309 6.18321 0.585436 5.99933 0.80667L0.582663 7.30667C0.54622 7.35837 0.513632 7.41268 0.485163 7.46917C0.485163 7.52334 0.485163 7.55584 0.40933 7.61C0.360226 7.73422 0.334516 7.86644 0.333496 8C0.334516 8.13357 0.360226 8.26579 0.40933 8.39C0.40933 8.44417 0.409329 8.47667 0.485163 8.53084C0.513632 8.58732 0.54622 8.64164 0.582663 8.69334L5.99933 15.1933C6.10119 15.3156 6.22874 15.414 6.37291 15.4814C6.51709 15.5488 6.67434 15.5836 6.8335 15.5833C7.08662 15.5838 7.33193 15.4957 7.52683 15.3342C7.63653 15.2432 7.7272 15.1315 7.79367 15.0055C7.86013 14.8794 7.90108 14.7415 7.91416 14.5996C7.92724 14.4577 7.9122 14.3147 7.86991 14.1786C7.82761 14.0425 7.75888 13.9161 7.66766 13.8067L3.73516 9.08334H16.5835C16.8708 9.08334 17.1464 8.9692 17.3495 8.76604C17.5527 8.56287 17.6668 8.28732 17.6668 8C17.6668 7.71269 17.5527 7.43714 17.3495 7.23397C17.1464 7.03081 16.8708 6.91667 16.5835 6.91667Z" fill="#292929"/>
</svg>
