<svg width="27" height="27" viewBox="0 0 27 27" fill="none" xmlns="http://www.w3.org/2000/svg">
<path d="M26.6891 21.5625C26.6891 22.1519 26.4818 22.6529 26.0674 23.0655L23.0476 26.0716C22.6332 26.4842 22.1299 26.6905 21.5378 26.6905C20.9457 26.6905 20.4424 26.4842 20.0279 26.0716L13.4999 19.5732L6.97198 26.0716C6.5575 26.4842 6.05421 26.6905 5.46211 26.6905C4.87 26.6905 4.36671 26.4842 3.95224 26.0716L0.932502 23.0655C0.518028 22.6529 0.310791 22.1519 0.310791 21.5625C0.310791 20.9731 0.518028 20.472 0.932502 20.0594L7.46046 13.561L0.932502 7.06249C0.518028 6.64989 0.310791 6.14888 0.310791 5.55944C0.310791 4.97001 0.518028 4.469 0.932502 4.0564L3.95224 1.0503C4.36671 0.637697 4.87 0.431396 5.46211 0.431396C6.05421 0.431396 6.5575 0.637697 6.97198 1.0503L13.4999 7.54877L20.0279 1.0503C20.4424 0.637697 20.9457 0.431396 21.5378 0.431396C22.1299 0.431396 22.6332 0.637697 23.0476 1.0503L26.0674 4.0564C26.4818 4.469 26.6891 4.97001 26.6891 5.55944C26.6891 6.14888 26.4818 6.64989 26.0674 7.06249L19.5394 13.561L26.0674 20.0594C26.4818 20.472 26.6891 20.9731 26.6891 21.5625Z" fill="#FAFAFA"/>
</svg>
