<svg width="25" height="24" viewBox="0 0 25 24" fill="none" xmlns="http://www.w3.org/2000/svg">
<path d="M23.1666 21.3333V9.99999C23.1666 9.793 23.1184 9.58885 23.0258 9.40371C22.9333 9.21857 22.7988 9.05752 22.6333 8.93332L13.2999 1.93332C13.0691 1.76023 12.7884 1.66666 12.4999 1.66666C12.2114 1.66666 11.9307 1.76023 11.6999 1.93332L2.36659 8.93332C2.20099 9.05752 2.06659 9.21857 1.97402 9.40371C1.88145 9.58885 1.83325 9.793 1.83325 9.99999V21.3333C1.83325 21.6869 1.97373 22.0261 2.22378 22.2761C2.47383 22.5262 2.81296 22.6667 3.16659 22.6667H8.49992C8.85354 22.6667 9.19268 22.5262 9.44273 22.2761C9.69278 22.0261 9.83325 21.6869 9.83325 21.3333V17.3333C9.83325 16.9797 9.97373 16.6406 10.2238 16.3905C10.4738 16.1405 10.813 16 11.1666 16H13.8333C14.1869 16 14.526 16.1405 14.7761 16.3905C15.0261 16.6406 15.1666 16.9797 15.1666 17.3333V21.3333C15.1666 21.6869 15.3071 22.0261 15.5571 22.2761C15.8072 22.5262 16.1463 22.6667 16.4999 22.6667H21.8333C22.1869 22.6667 22.526 22.5262 22.7761 22.2761C23.0261 22.0261 23.1666 21.6869 23.1666 21.3333Z" stroke="#666666" stroke-width="2" stroke-linecap="round" stroke-linejoin="round"/>
</svg>
