<svg width="28" height="28" viewBox="0 0 28 28" fill="none" xmlns="http://www.w3.org/2000/svg">
<path d="M12.4444 0H15.5556V28H12.4444V0ZM3.11111 7.77778C3.11111 7.36522 3.275 6.96956 3.56672 6.67783C3.85845 6.38611 4.25411 6.22222 4.66667 6.22222H9.33333V3.11111H4.66667C3.42899 3.11111 2.24201 3.60278 1.36684 4.47795C0.491665 5.35312 0 6.5401 0 7.77778V20.2222C0 21.4599 0.491665 22.6469 1.36684 23.5221C2.24201 24.3972 3.42899 24.8889 4.66667 24.8889H9.33333V21.7778H4.66667C4.25411 21.7778 3.85845 21.6139 3.56672 21.3222C3.275 21.0304 3.11111 20.6348 3.11111 20.2222V7.77778ZM24.8889 7.77778C24.8889 7.36522 24.725 6.96956 24.4333 6.67783C24.1416 6.38611 23.7459 6.22222 23.3333 6.22222H18.6667V3.11111H23.3333C24.571 3.11111 25.758 3.60278 26.6332 4.47795C27.5083 5.35312 28 6.5401 28 7.77778V20.2222C28 21.4599 27.5083 22.6469 26.6332 23.5221C25.758 24.3972 24.571 24.8889 23.3333 24.8889H18.6667V21.7778H23.3333C23.7459 21.7778 24.1416 21.6139 24.4333 21.3222C24.725 21.0304 24.8889 20.6348 24.8889 20.2222V7.77778Z" fill="#FAFAFA"/>
</svg>
