<svg width="33" height="30" viewBox="0 0 33 30" fill="none" xmlns="http://www.w3.org/2000/svg">
<path d="M19.45 0.126872C19.6604 0.0240633 19.8955 -0.0175577 20.1285 0.00675301C20.3614 0.0310637 20.5828 0.120328 20.7675 0.264373L32.0175 9.01437C32.1625 9.12702 32.281 9.27024 32.3644 9.43384C32.4478 9.59744 32.4941 9.77741 32.5001 9.96095C32.506 10.1445 32.4715 10.3271 32.3989 10.4958C32.3263 10.6644 32.2174 10.815 32.08 10.9369L20.83 20.9369C20.6498 21.0969 20.4273 21.2014 20.1891 21.2378C19.9509 21.2743 19.7073 21.2411 19.4875 21.1423C19.2677 21.0435 19.0812 20.8833 18.9504 20.681C18.8195 20.4787 18.7499 20.2428 18.75 20.0019V15.1419C18.16 15.2419 17.39 15.4169 16.49 15.7169C14.3075 16.4469 11.355 17.9144 8.385 20.8869C8.20328 21.0693 7.96966 21.1911 7.71607 21.2358C7.46248 21.2804 7.20129 21.2456 6.96821 21.1362C6.73514 21.0267 6.54154 20.848 6.41388 20.6244C6.28622 20.4008 6.23073 20.1432 6.255 19.8869C6.6125 15.9594 7.7575 13.0944 9.315 11.0294C10.6525 9.24771 12.4689 7.88299 14.5525 7.09437C15.897 6.58608 17.314 6.29576 18.75 6.23437V1.25187C18.7495 1.0176 18.8149 0.787907 18.9387 0.588994C19.0624 0.390081 19.2396 0.229953 19.45 0.126872ZM0 8.75187C0 7.09427 0.65848 5.50456 1.83058 4.33245C3.00269 3.16035 4.5924 2.50187 6.25 2.50187H11.25C11.5815 2.50187 11.8995 2.63357 12.1339 2.86799C12.3683 3.10241 12.5 3.42035 12.5 3.75187C12.5 4.08339 12.3683 4.40133 12.1339 4.63576C11.8995 4.87018 11.5815 5.00187 11.25 5.00187H6.25C5.25544 5.00187 4.30161 5.39696 3.59835 6.10022C2.89509 6.80348 2.5 7.75731 2.5 8.75187V23.7519C2.5 24.7464 2.89509 25.7003 3.59835 26.4035C4.30161 27.1068 5.25544 27.5019 6.25 27.5019H21.25C22.2446 27.5019 23.1984 27.1068 23.9017 26.4035C24.6049 25.7003 25 24.7464 25 23.7519V21.2519C25 20.9203 25.1317 20.6024 25.3661 20.368C25.6005 20.1336 25.9185 20.0019 26.25 20.0019C26.5815 20.0019 26.8995 20.1336 27.1339 20.368C27.3683 20.6024 27.5 20.9203 27.5 21.2519V23.7519C27.5 25.4095 26.8415 26.9992 25.6694 28.1713C24.4973 29.3434 22.9076 30.0019 21.25 30.0019H6.25C4.5924 30.0019 3.00269 29.3434 1.83058 28.1713C0.65848 26.9992 0 25.4095 0 23.7519V8.75187Z" fill="#FAFAFA"/>
</svg>
