<svg width="42" height="58" viewBox="0 0 42 58" fill="none" xmlns="http://www.w3.org/2000/svg">
<path d="M21.1483 0C12.0024 0 6.07856 3.70464 1.42774 10.3115C0.584059 11.5101 0.844163 13.1533 2.02105 14.0355L6.96394 17.7409C8.15252 18.6318 9.84365 18.4235 10.7742 17.271C13.6444 13.7161 15.7735 11.6693 20.2568 11.6693C23.7818 11.6693 28.1419 13.9122 28.1419 17.2916C28.1419 19.8463 26.0087 21.1583 22.5281 23.0875C18.4693 25.3373 13.098 28.1371 13.098 35.1412V36.25C13.098 37.7515 14.3292 38.9688 15.848 38.9688H24.152C25.6708 38.9688 26.902 37.7515 26.902 36.25V35.596C26.902 30.7408 41.2556 30.5386 41.2556 17.4C41.2558 7.50556 30.8743 0 21.1483 0ZM20.0001 42.3059C15.6235 42.3059 12.0628 45.8261 12.0628 50.153C12.0628 54.4798 15.6235 58 20.0001 58C24.3767 58 27.9374 54.4798 27.9374 50.1529C27.9374 45.826 24.3767 42.3059 20.0001 42.3059Z" fill="#666666"/>
</svg>
