<svg width="47" height="46" viewBox="0 0 47 46" fill="none" xmlns="http://www.w3.org/2000/svg">
<path d="M46.4588 36.625C46.4588 37.6413 46.098 38.5051 45.3765 39.2165L40.12 44.3994C39.3985 45.1108 38.5224 45.4665 37.4917 45.4665C36.461 45.4665 35.5849 45.1108 34.8634 44.3994L23.4999 33.1951L12.1364 44.3994C11.4149 45.1108 10.5388 45.4665 9.50812 45.4665C8.47742 45.4665 7.60132 45.1108 6.87983 44.3994L1.62325 39.2165C0.901761 38.5051 0.541016 37.6413 0.541016 36.625C0.541016 35.6087 0.901761 34.7449 1.62325 34.0335L12.9867 22.8293L1.62325 11.625C0.901761 10.9136 0.541016 10.0498 0.541016 9.03354C0.541016 8.01728 0.901761 7.15346 1.62325 6.44208L6.87983 1.25915C7.60132 0.547769 8.47742 0.192078 9.50812 0.192078C10.5388 0.192078 11.4149 0.547769 12.1364 1.25915L23.4999 12.4634L34.8634 1.25915C35.5849 0.547769 36.461 0.192078 37.4917 0.192078C38.5224 0.192078 39.3985 0.547769 40.12 1.25915L45.3765 6.44208C46.098 7.15346 46.4588 8.01728 46.4588 9.03354C46.4588 10.0498 46.098 10.9136 45.3765 11.625L34.0131 22.8293L45.3765 34.0335C46.098 34.7449 46.4588 35.6087 46.4588 36.625Z" fill="#ED2E38"/>
</svg>
